<?xml version="1.0" standalone="no"?>
<!DOCTYPE svg PUBLIC "-//W3C//DTD SVG 20010904//EN"
 "http://www.w3.org/TR/2001/REC-SVG-20010904/DTD/svg10.dtd">
<svg version="1.0" xmlns="http://www.w3.org/2000/svg"
 width="192.000000pt" height="192.000000pt" viewBox="0 0 192.000000 192.000000"
 preserveAspectRatio="xMidYMid meet">
<metadata>
Created by potrace 1.14, written by Peter Selinger 2001-2017
</metadata>
<g transform="translate(0.000000,192.000000) scale(0.100000,-0.100000)"
fill="#000000" stroke="none">
<path d="M0 960 l0 -960 960 0 960 0 0 960 0 960 -960 0 -960 0 0 -960z m1870
5 l0 -905 -910 0 -910 0 0 905 0 905 910 0 910 0 0 -905z"/>
<path d="M80 966 c0 -624 3 -877 11 -882 6 -3 402 -3 880 1 l869 8 0 873 0
874 -300 0 -300 0 0 -290 c0 -159 3 -290 8 -290 4 0 27 16 51 35 58 46 108 59
172 46 68 -15 99 -32 142 -80 47 -52 67 -122 67 -231 0 -214 -111 -379 -255
-380 -58 0 -108 17 -135 45 -33 35 -50 32 -50 -10 0 -34 -1 -35 -40 -35 l-40
0 0 595 0 595 -540 0 -540 0 0 -874z m610 357 c45 -18 77 -49 101 -95 l19 -37
-31 -16 c-35 -19 -34 -19 -58 26 -29 54 -64 74 -131 74 -53 0 -62 -3 -94 -34
-54 -52 -71 -114 -71 -256 0 -111 2 -124 28 -177 33 -68 75 -98 136 -98 59 0
104 22 137 66 15 22 31 43 34 47 8 9 60 -12 60 -23 0 -4 -15 -29 -32 -56 -46
-68 -118 -104 -205 -104 -77 0 -107 14 -162 76 -66 75 -85 137 -86 279 0 116
1 123 33 187 71 144 189 196 322 141z"/>
<path d="M1345 1261 c-22 -10 -55 -34 -73 -55 l-32 -37 0 -178 0 -179 46 -41
c56 -49 105 -65 157 -50 108 29 167 159 154 340 -12 175 -120 261 -252 200z"/>
</g>
</svg>
